<svg width="16" height="16" viewBox="0 0 16 16" fill="none" xmlns="http://www.w3.org/2000/svg">
<path fill-rule="evenodd" clip-rule="evenodd" d="M6.34609 0H4.06155C3.58304 0 3.14121 0.329524 2.90373 0.863512L0.234439 6.86564C-0.0781462 7.56851 -0.0781462 8.43149 0.234439 9.13437L2.90373 15.1365C3.14121 15.6705 3.58304 16 4.06155 16H6.34609C6.59161 16 6.79064 15.7442 6.79064 15.4286C6.79064 15.3291 6.77044 15.2313 6.73203 15.145L3.80673 8.56718C3.65043 8.21575 3.65043 7.78425 3.80673 7.43282L6.73203 0.85502C6.85388 0.581036 6.77987 0.23196 6.56672 0.075337C6.49953 0.0259684 6.42348 0 6.34609 0ZM9.65391 0H11.9384C12.417 0 12.8588 0.329524 13.0963 0.863512L15.7656 6.86564C16.0781 7.56851 16.0781 8.43149 15.7656 9.13437L13.0963 15.1365C12.8588 15.6705 12.417 16 11.9384 16H9.65391C9.40839 16 9.20936 15.7442 9.20936 15.4286C9.20936 15.3291 9.22956 15.2313 9.26797 15.145L12.1933 8.56718C12.3496 8.21575 12.3496 7.78425 12.1933 7.43282L9.26797 0.85502C9.14612 0.581036 9.22013 0.23196 9.43328 0.075337C9.50047 0.0259684 9.57652 0 9.65391 0Z" fill="url(#paint0_linear_610_543)"/>
<path fill-rule="evenodd" clip-rule="evenodd" d="M6.34609 0C6.42348 0 6.49953 0.0259684 6.56672 0.075337C6.75618 0.214558 6.83571 0.50584 6.76547 0.761278L6.73203 0.85502L3.80673 7.43282C3.66997 7.74032 3.65287 8.10912 3.75544 8.43195L3.80673 8.56718L6.73203 15.145C6.77044 15.2313 6.79064 15.3291 6.79064 15.4286C6.79064 15.7091 6.63338 15.9424 6.426 15.9908L6.34609 16H4.06155C3.62654 16 3.22184 15.7277 2.97344 15.277L2.90373 15.1365L0.234439 9.13437C-0.0520974 8.49006 -0.0759756 7.71123 0.162805 7.0445L0.234439 6.86564L2.90373 0.863512C3.11962 0.378069 3.5044 0.0616035 3.93209 0.00807626L4.06155 0H6.34609Z" fill="#FD8731" fill-opacity="0.33"/>
<path fill-rule="evenodd" clip-rule="evenodd" d="M6.34609 0C6.42348 0 6.49953 0.0259684 6.56672 0.075337C6.75618 0.214557 6.83572 0.50584 6.76547 0.761278L6.73203 0.85502L3.80673 7.43282C3.72449 7.61773 3.68552 7.82481 3.68983 8.03072H0.000160471C-0.00335405 7.69429 0.0508607 7.35707 0.162805 7.0445L0.234439 6.86563L2.90373 0.863512C3.11962 0.378069 3.5044 0.0616035 3.93209 0.00807626L4.06156 0H6.34609ZM9.65391 0C9.57652 0 9.50047 0.0259684 9.43328 0.075337C9.24382 0.214557 9.16428 0.50584 9.23453 0.761278L9.26797 0.85502L12.1933 7.43282C12.2755 7.61773 12.3145 7.82481 12.3102 8.03072H15.9998C16.0034 7.69429 15.9491 7.35707 15.8372 7.0445L15.7656 6.86563L13.0963 0.863512C12.8804 0.378069 12.4956 0.0616035 12.0679 0.00807626L11.9384 0H9.65391Z" fill="#B46932" fill-opacity="0.66"/>
<path fill-rule="evenodd" clip-rule="evenodd" d="M6.3461 0C6.42349 0 6.49954 0.0259684 6.56672 0.075337C6.75619 0.214558 6.83572 0.50584 6.76548 0.761278L6.73204 0.85502L1.56909 3.86457L2.90374 0.863512C3.11963 0.378069 3.50441 0.0616035 3.9321 0.00807626L4.06156 0H6.3461Z" fill="#AD7157"/>
<defs>
<linearGradient id="paint0_linear_610_543" x1="800" y1="1600" x2="800" y2="0" gradientUnits="userSpaceOnUse">
<stop offset="0.9999" stop-color="#FB8B38" stop-opacity="0.71"/>
<stop offset="1"/>
</linearGradient>
</defs>
</svg>
