<svg width="18" height="18" viewBox="0 0 18 18" fill="none" xmlns="http://www.w3.org/2000/svg">
<path fill-rule="evenodd" clip-rule="evenodd" d="M7.03069 13.618L8.50189 14.4654C8.65641 14.5544 8.82879 14.5989 9.00117 14.5989L9.13018 14.5906C9.25863 14.5739 9.38457 14.5322 9.50046 14.4655L10.9696 13.619L12.2215 15.7875C12.3446 15.9999 12.2935 16.2651 12.1126 16.4184L12.0381 16.4701L9.70902 17.811L9.4828 17.916C9.1724 18.028 8.83193 18.028 8.52153 17.916L8.29531 17.811L5.96328 16.4681C5.75036 16.3459 5.66171 16.0908 5.74146 15.8675L5.77984 15.7855L7.03069 13.618ZM14.7876 9.75L17.934 15.2519C17.9772 15.3274 17.9999 15.413 17.9999 15.5C17.9999 15.7455 17.823 15.9496 17.5897 15.9919L17.4998 16H14.9297C14.4403 16 13.985 15.7617 13.7056 15.3673L13.6271 15.2444L12.269 12.87L13.4994 12.1625C13.8093 11.984 14.0004 11.6536 14.0004 11.296V9.75H14.7876ZM4.00096 9.75V11.295C4.00096 11.6526 4.19196 11.983 4.50189 12.1615L5.73038 12.869L4.37286 15.2444C4.1057 15.7117 3.60863 16 3.07031 16H0.500206C0.223997 16 8.54294e-05 15.7761 8.54294e-05 15.5C8.54294e-05 15.413 0.0228135 15.3274 0.0660214 15.2519L3.21177 9.75H4.00096ZM8.50196 5.26348C8.77234 5.10777 9.09739 5.0883 9.38144 5.20506L9.50039 5.26345L11.998 6.7015C12.2735 6.86016 12.4551 7.13887 12.492 7.45003L12.499 7.56806V10.4289C12.499 10.7468 12.3481 11.0432 12.0968 11.2305L11.998 11.2955L9.50039 12.7336C9.23 12.8892 8.90495 12.9087 8.6209 12.7919L8.50196 12.7335L6.00132 11.2935C5.72579 11.1348 5.54424 10.8561 5.5073 10.545L5.50032 10.427V7.57003C5.50032 7.25214 5.65126 6.95575 5.9025 6.76845L6.00132 6.70349L8.50196 5.26348ZM3.07031 2C3.60863 2 4.1057 2.28833 4.37286 2.75557L5.72938 5.128L4.50189 5.83648C4.19196 6.01499 4.00096 6.34537 4.00096 6.70297V8.25H3.21177L0.0660214 2.74814C-0.0710568 2.50841 0.0122104 2.20297 0.252004 2.06592C0.327588 2.02272 0.413143 2 0.500206 2H3.07031ZM17.4998 2C17.5869 2 17.6724 2.02272 17.748 2.06592C17.9611 2.18774 18.0506 2.44261 17.9716 2.66612L17.934 2.74814L14.7876 8.25H14.0004V6.70201C14.0004 6.34439 13.8093 6.01399 13.4994 5.83549L12.27 5.127L13.6271 2.75557C13.87 2.33081 14.3029 2.0539 14.784 2.00707L14.9297 2H17.4998ZM9.4828 0.0839808L9.70902 0.188957L12.0381 1.5299C12.2511 1.65201 12.3398 1.90712 12.26 2.13037L12.2215 2.21246L10.9706 4.379L9.50046 3.53254C9.38457 3.4658 9.25863 3.42408 9.13018 3.4074L9.00117 3.39906C8.82879 3.39907 8.65641 3.44357 8.50189 3.53257L7.02969 4.38L5.77986 2.2145C5.65685 2.00207 5.708 1.73686 5.88891 1.58362L5.96328 1.53187L8.29531 0.188957L8.52153 0.0839808C8.83193 -0.0279936 9.1724 -0.0279936 9.4828 0.0839808Z" fill="#CE3DF3"/>
<path fill-rule="evenodd" clip-rule="evenodd" d="M7.03069 13.618L8.50189 14.4654C8.61778 14.5322 8.74372 14.5739 8.87216 14.5906L9.00217 14.598V18C8.83945 18 8.67673 17.972 8.52153 17.916L8.29531 17.811L5.96328 16.4681C5.75036 16.3459 5.66171 16.0908 5.74146 15.8675L5.77984 15.7855L7.03069 13.618ZM4.00096 9.75V11.295C4.00096 11.6526 4.19196 11.983 4.50189 12.1615L5.73038 12.869L4.37286 15.2444C4.1057 15.7117 3.60863 16 3.07031 16H0.500206C0.223997 16 8.54294e-05 15.7761 8.54294e-05 15.5C8.54294e-05 15.413 0.0228135 15.3274 0.0660214 15.2519L3.21177 9.75H4.00096ZM9.00622 5.13002C9.1338 5.13066 9.26129 5.15567 9.38144 5.20506L9.50039 5.26345L11.998 6.7015C12.1512 6.78976 12.2754 6.91516 12.3618 7.06262L9.01017 8.995L12.3618 10.9344C12.2948 11.0487 12.2051 11.1498 12.0968 11.2305L11.998 11.2955L9.50039 12.7336C9.34799 12.8213 9.17823 12.8658 9.00824 12.867L9.01017 9.00402L5.64396 10.9433C5.57137 10.8229 5.5242 10.6874 5.5073 10.545L5.50032 10.427V7.57003C5.50032 7.38605 5.55088 7.20927 5.64218 7.05668L9.00217 8.999L9.00622 5.13002ZM3.07031 2C3.60863 2 4.1057 2.28833 4.37286 2.75557L5.72938 5.128L4.50189 5.83648C4.19196 6.01499 4.00096 6.34537 4.00096 6.70297V8.25H3.21177L0.0660214 2.74814C-0.0710568 2.50841 0.0122104 2.20297 0.252004 2.06592C0.327588 2.02272 0.413143 2 0.500206 2H3.07031ZM9.00217 0L9.00117 3.39906C8.82879 3.39907 8.65641 3.44357 8.50189 3.53257L7.02969 4.38L5.77986 2.2145C5.65685 2.00207 5.708 1.73686 5.88891 1.58362L5.96328 1.53187L8.29531 0.188957L8.52153 0.0839808C8.67673 0.0279936 8.83945 0 9.00217 0Z" fill="black" fill-opacity="0.2"/>
<path fill-rule="evenodd" clip-rule="evenodd" d="M5.98344 15.43L8.29531 16.3128L8.52153 16.4177C8.83193 16.5297 9.1724 16.5297 9.4828 16.4177L9.70902 16.3128L12.0149 15.431L12.2215 15.7875C12.3446 15.9999 12.2935 16.2651 12.1126 16.4184L12.0381 16.4701L9.70902 17.811L9.4828 17.916C9.37933 17.9533 9.27253 17.9782 9.1646 17.9907L9.00217 18C8.83945 18 8.67673 17.972 8.52153 17.916L8.29531 17.811L5.96328 16.4681C5.75036 16.3459 5.66171 16.0908 5.74146 15.8675L5.77984 15.7855L5.98344 15.43ZM16.9561 13.543L17.934 15.2519C17.9772 15.3274 17.9999 15.413 17.9999 15.5C17.9999 15.7455 17.823 15.9496 17.5897 15.9919L17.4998 16H14.9297C14.4403 16 13.985 15.7617 13.7056 15.3673L13.6271 15.2444L13.4252 14.892L16.9561 13.543ZM1.04125 13.545L4.5731 14.892L4.37286 15.2444C4.1057 15.7117 3.60863 16 3.07031 16H0.500206C0.223997 16 8.54294e-05 15.7761 8.54294e-05 15.5C8.54294e-05 15.413 0.0228135 15.3274 0.0660214 15.2519L1.04125 13.545ZM17.4998 2C17.5869 2 17.6724 2.02272 17.748 2.06592C17.9611 2.18774 18.0506 2.44261 17.9716 2.66612L17.934 2.74814L16.9561 4.457L13.4242 3.108L13.6271 2.75557C13.87 2.33081 14.3029 2.0539 14.784 2.00707L14.9297 2H17.4998ZM3.07031 2C3.60863 2 4.1057 2.28833 4.37286 2.75557L4.5741 3.108L1.04225 4.456L0.0660214 2.74814C-0.0710568 2.50841 0.0122104 2.20297 0.252004 2.06592C0.327588 2.02272 0.413143 2 0.500206 2H3.07031ZM9.4828 0.0839808L9.70902 0.188957L12.0381 1.5299C12.2511 1.65201 12.3398 1.90712 12.26 2.13037L12.2215 2.21246L12.0149 2.569L9.70902 1.68896L9.4828 1.58398C9.22413 1.49067 8.94459 1.47512 8.67896 1.53732L8.52153 1.58398L8.29531 1.68896L5.98444 2.57L5.77986 2.2145C5.65685 2.00207 5.708 1.73686 5.88891 1.58362L5.96328 1.53187L8.29531 0.188957L8.52153 0.0839808C8.83193 -0.0279936 9.1724 -0.0279936 9.4828 0.0839808Z" fill="black" fill-opacity="0.2"/>
<path fill-rule="evenodd" clip-rule="evenodd" d="M9.0072 5.13039L9.00504 9.00533L5.6416 7.05805C5.70812 6.94657 5.79637 6.84797 5.90252 6.76883L6.00134 6.70388L8.50197 5.26386C8.65827 5.17385 8.83284 5.12936 9.0072 5.13039Z" fill="#FEC1FF" fill-opacity="0.64"/>
</svg>
