<svg xmlns="http://www.w3.org/2000/svg" xmlns:xlink="http://www.w3.org/1999/xlink" version="1.1" width="1000" height="1000" viewBox="0 0 1000 1000" xml:space="preserve">
<desc>Created with Fabric.js 3.5.0</desc>
<defs>
</defs>
<rect x="0" y="0" width="100%" height="100%" fill="rgba(255,255,255,0)"/>
<g transform="matrix(0 -1.7754 1.7754 0 500.0013 499.9988)" id="742524">
<path style="stroke: none; stroke-width: 1; stroke-dasharray: none; stroke-linecap: butt; stroke-dashoffset: 0; stroke-linejoin: miter; stroke-miterlimit: 4; is-custom-font: none; font-file-url: none; fill: rgb(255,255,255); fill-rule: nonzero; opacity: 1;" vector-effect="non-scaling-stroke" transform=" translate(-224, -255.95)" d="M 438.6 150.6 c 12.5 -12.5 12.5 -32.8 0 -45.3 l -96 -96 c -12.5 -12.5 -32.8 -12.5 -45.3 0 s -12.5 32.8 0 45.3 L 338.7 96 L 32 96 C 14.3 96 0 110.3 0 128 s 14.3 32 32 32 l 306.7 0 l -41.4 41.4 c -12.5 12.5 -12.5 32.8 0 45.3 s 32.8 12.5 45.3 0 l 96 -96 z m -333.3 352 c 12.5 12.5 32.8 12.5 45.3 0 s 12.5 -32.8 0 -45.3 L 109.3 416 L 416 416 c 17.7 0 32 -14.3 32 -32 s -14.3 -32 -32 -32 l -306.7 0 l 41.4 -41.4 c 12.5 -12.5 12.5 -32.8 0 -45.3 s -32.8 -12.5 -45.3 0 l -96 96 c -12.5 12.5 -12.5 32.8 0 45.3 l 96 96 z" stroke-linecap="round"/>
</g>
</svg>