<svg width="16" height="16" viewBox="0 0 16 16" fill="none" xmlns="http://www.w3.org/2000/svg">
<path fill-rule="evenodd" clip-rule="evenodd" d="M13.7918 2.42857L15.7656 6.86564C16.0781 7.56851 16.0781 8.43149 15.7656 9.13437L13.0963 15.1365C12.8588 15.6705 12.417 16 11.9384 16H9.65391C9.40839 16 9.20936 15.7442 9.20936 15.4286C9.20936 15.3291 9.22956 15.2313 9.26797 15.145L12.1933 8.56718C12.3496 8.21575 12.3496 7.78425 12.1933 7.43282L11.8802 6.72914L13.7918 2.42857ZM4.89629 10.984L5.39418 12.0916C5.61075 12.5738 5.9943 12.8876 6.42023 12.9407L6.54915 12.9487L7.5796 12.9486L6.47971 15.4242C6.32141 15.7802 6.02681 16 5.70775 16H3.43335C3.18783 16 2.9888 15.7442 2.9888 15.4286C2.9888 15.3291 3.00899 15.2314 3.04737 15.1451L4.89629 10.984ZM6.34609 0C6.42348 0 6.49953 0.0259684 6.56672 0.075337C6.75618 0.214558 6.83571 0.50584 6.76547 0.761278L6.73203 0.85502L3.80673 7.43282C3.66997 7.74032 3.65287 8.10912 3.75544 8.43195L3.80673 8.56718L4.12099 9.27429L2.20853 13.5749L0.234439 9.13437C-0.0520974 8.49006 -0.0759756 7.71123 0.162805 7.0445L0.234439 6.86564L2.90373 0.863512C3.11962 0.378069 3.5044 0.0616035 3.93209 0.00807626L4.06155 0H6.34609ZM9.19804 4.76557L9.27619 4.77446C9.37836 4.7979 9.47108 4.86671 9.53797 4.96873L9.58303 5.05128L10.7791 7.71429L10.8122 7.80573C10.8475 7.93119 10.8475 8.06881 10.8122 8.19427L10.7791 8.28572L9.58303 10.9487L9.53797 11.0313C9.47108 11.1333 9.37836 11.2021 9.27619 11.2255L9.19804 11.2344H6.80582L6.72767 11.2255C6.62549 11.2021 6.53277 11.1333 6.46589 11.0313L6.42082 10.9487L5.22471 8.28572L5.19163 8.19427C5.15633 8.06881 5.15633 7.93119 5.19163 7.80573L5.22471 7.71429L6.42082 5.05128L6.46589 4.96873C6.53277 4.86671 6.62549 4.7979 6.72767 4.77446L6.80582 4.76557H9.19804ZM12.5705 0C12.816 0 13.0151 0.255837 13.0151 0.571429C13.0151 0.670873 12.9949 0.768595 12.9565 0.854936L11.1067 5.01486L10.6097 3.90843C10.3931 3.42624 10.0095 3.11237 9.58362 3.05929L9.4547 3.05128L8.42336 3.05029L9.52414 0.575841C9.68244 0.219755 9.97704 0 10.2961 0H12.5705Z" fill="#FFE500"/>
<path fill-rule="evenodd" clip-rule="evenodd" d="M4.89593 10.984L5.39418 12.0916C5.52773 12.3889 5.72478 12.6223 5.95611 12.7699L4.5714 15.9989L3.43335 16C3.18783 16 2.9888 15.7442 2.9888 15.4286C2.9888 15.3291 3.00899 15.2314 3.04737 15.1451L4.89593 10.984ZM6.34609 0C6.42348 0 6.49953 0.0259684 6.56672 0.075337C6.75618 0.214558 6.83572 0.50584 6.76547 0.761278L6.73203 0.85502L3.80673 7.43282C3.72449 7.61773 3.68552 7.82481 3.68983 8.03073H0.000160471C-0.00335405 7.69429 0.0508607 7.35708 0.162805 7.0445L0.234439 6.86564L2.90373 0.863512C3.11962 0.378069 3.5044 0.0616035 3.93209 0.00807626L4.06156 0H6.34609ZM11.4333 0L10.0477 3.23009C9.90394 3.13831 9.74689 3.07964 9.58362 3.05929L9.4547 3.05128L8.42388 3.05029L9.52414 0.575841C9.68244 0.219755 9.97704 0 10.2961 0H11.4333Z" fill="#FFF27E"/>
<path fill-rule="evenodd" clip-rule="evenodd" d="M15.9998 7.96928C16.0034 8.30571 15.9491 8.64293 15.8372 8.9555L15.7656 9.13437L13.0963 15.1365C12.8804 15.6219 12.4956 15.9384 12.0679 15.9919L11.9384 16H9.65391C9.57652 16 9.50047 15.974 9.43328 15.9247C9.24382 15.7854 9.16428 15.4942 9.23453 15.2387L9.26797 15.145L12.1933 8.56718C12.2755 8.38227 12.3145 8.17519 12.3102 7.96928H15.9998ZM9.19804 4.76557L9.27619 4.77446C9.33826 4.7887 9.39685 4.81969 9.44827 4.8647L8.0285 8.02084L10.8383 8.02403C10.8363 8.08442 10.8269 8.14449 10.81 8.2019L10.7791 8.28572L9.58303 10.9487L9.53797 11.0313C9.50753 11.0777 9.47173 11.1173 9.43213 11.1488L8.03251 8.02977L6.61595 11.1797C6.55559 11.143 6.50189 11.0891 6.45941 11.0212L6.42082 10.9487L5.22471 8.28572L5.19163 8.19427C5.17646 8.14038 5.16782 8.08424 5.16568 8.02778L8.02412 8.02937L6.59297 4.83533C6.63578 4.80531 6.68247 4.78431 6.73127 4.77365L6.80582 4.76557H9.19804ZM6.34609 0C6.42348 0 6.49953 0.0259684 6.56672 0.075337C6.75618 0.214558 6.83572 0.50584 6.76547 0.761278L6.73203 0.85502L3.80673 7.43282C3.72449 7.61773 3.68552 7.82481 3.68983 8.03073H0.000160471C-0.00335405 7.69429 0.0508607 7.35708 0.162805 7.0445L0.234439 6.86564L2.90373 0.863512C3.11962 0.378069 3.5044 0.0616035 3.93209 0.00807626L4.06156 0H6.34609Z" fill="#FFDD2C"/>
<path fill-rule="evenodd" clip-rule="evenodd" d="M6.42071 5.05176L6.46577 4.9692C6.50204 4.91388 6.5459 4.86833 6.59475 4.83447L8.02885 8.0341L5.16563 8.03006C5.16272 7.95779 5.17049 7.88496 5.18893 7.81563L5.2246 7.71476L6.42071 5.05176Z" fill="#FFF27E"/>
</svg>
