<svg width="16" height="16" viewBox="0 0 16 16" fill="none" xmlns="http://www.w3.org/2000/svg">
<path fill-rule="evenodd" clip-rule="evenodd" d="M4.87302 16C4.35114 16 3.86563 15.7277 3.5676 15.277L3.48397 15.1365L0.281299 9.13443C-0.0625107 8.4901 -0.0911618 7.71121 0.195346 7.04445L0.281299 6.86557L3.48397 0.863462C3.74299 0.378044 4.20461 0.0615994 4.7177 0.00807571L4.87302 0H11.127C11.701 0 12.2311 0.329502 12.516 0.863462L15.7187 6.86557C16.0938 7.56848 16.0938 8.43152 15.7187 9.13443L12.516 15.1365C12.2311 15.6705 11.701 16 11.127 16H4.87302ZM8 2.39886L5.31455 7.43278C5.15046 7.74031 5.12995 8.10913 5.25302 8.43198L5.31455 8.56722L8 13.6L10.6854 8.56722C10.873 8.21576 10.873 7.78424 10.6854 7.43278L8 2.39886Z" fill="url(#paint0_linear_610_473)"/>
<path fill-rule="evenodd" clip-rule="evenodd" d="M7.99586 0V2.40457L5.31455 7.43278C5.15046 7.74031 5.12995 8.10913 5.25302 8.43198L5.31455 8.56722L7.99586 13.5931V16H4.87302C4.35114 16 3.86563 15.7277 3.5676 15.277L3.48397 15.1365L0.281299 9.13443C-0.0625108 8.4901 -0.0911618 7.71121 0.195346 7.04445L0.281299 6.86557L3.48397 0.863462C3.74299 0.378044 4.20461 0.0615994 4.7177 0.00807571L4.87302 0H7.99586Z" fill="#CACACA" fill-opacity="0.67"/>
<path fill-rule="evenodd" clip-rule="evenodd" d="M11.127 0C11.701 0 12.2311 0.329502 12.516 0.863462L15.7187 6.86557C15.9064 7.21736 16.0002 7.60927 16 8.00114H10.8261C10.8263 7.80501 10.7794 7.60885 10.6854 7.43278L8 2.39886L5.31455 7.43278C5.22097 7.60817 5.17408 7.8035 5.1739 7.99886L0 8C0 7.67376 0.0651152 7.34752 0.195346 7.04445L0.281299 6.86557L3.48397 0.863462C3.74299 0.378044 4.20461 0.0615994 4.7177 0.00807571L4.87302 0H11.127Z" fill="#BCBABA" fill-opacity="0.67"/>
<path fill-rule="evenodd" clip-rule="evenodd" d="M7.99473 0L1.88257 3.86452L3.4839 0.863462C3.74292 0.378044 4.20454 0.0615994 4.71763 0.00807571L4.87296 0H7.99473Z" fill="#C9C9C9"/>
<defs>
<linearGradient id="paint0_linear_610_473" x1="800" y1="1600" x2="800" y2="0" gradientUnits="userSpaceOnUse">
<stop offset="0.9999" stop-color="#9D9D9D"/>
<stop offset="1"/>
</linearGradient>
</defs>
</svg>
