<svg width="19" height="18" viewBox="0 0 19 18" fill="none" xmlns="http://www.w3.org/2000/svg">
<path fill-rule="evenodd" clip-rule="evenodd" d="M9.00272 14.949L9.55314 15.4134L10.0522 15.8183L10.3045 16.0172L10.8873 16.4624L11.1023 16.6206C11.214 16.7018 11.2382 16.8583 11.1566 16.9697C11.1361 16.9977 11.11 17.0211 11.0791 17.0371L9.75727 17.7989L9.61477 17.8713C9.22724 18.0429 8.78419 18.0429 8.39666 17.8713L8.25416 17.7989L6.93278 17.0359C6.81321 16.9668 6.77225 16.8139 6.84129 16.6944C6.85908 16.6636 6.88325 16.6369 6.91218 16.6162L6.9529 16.587C7.11466 16.4679 7.27813 16.345 7.4433 16.2183L7.94384 15.8272L8.44337 15.4222L9.00272 14.949ZM13.811 9.5L13.8364 9.5004L14.2454 9.97674L14.4432 10.213L14.9172 10.7968L15.3605 11.3697L15.6919 11.8187C15.7453 11.8928 15.7979 11.9664 15.8495 12.0397L16.1481 12.4744C17.5846 14.6215 18.1608 16.3638 17.3802 17.1444C16.4564 18.0682 14.1859 17.092 11.4914 15.0383L10.9971 14.6533L10.5087 14.2572C10.236 14.0319 9.9604 13.7972 9.68262 13.5539L10.3499 13.902C10.7392 14.1067 11.1852 14.1773 11.6187 14.103L11.7649 14.0723C11.949 14.0266 12.1214 13.9561 12.2792 13.8652L12.4914 14.0213L12.9051 14.3154C12.9728 14.3624 13.0398 14.4083 13.1062 14.4531L13.4963 14.7094C14.8955 15.6013 15.9418 15.9615 16.3195 15.5838C16.6923 15.211 16.3463 14.1868 15.4794 12.8146L15.2177 12.4134C15.0799 12.2083 14.9319 11.9966 14.7742 11.7794L14.4461 11.3376L14.0013 10.7668L13.5198 10.1779L13.336 9.963L13.811 9.5ZM4.199 9.5L4.671 9.961L4.48737 10.1779L4.09931 10.6503C3.97377 10.806 3.8521 10.9599 3.73447 11.1116L3.39388 11.5603C3.17513 11.8548 2.97322 12.1399 2.78954 12.4134L2.52784 12.8146C1.66092 14.1868 1.31492 15.211 1.6877 15.5838C1.99686 15.8929 2.75407 15.7077 3.78627 15.141L4.14028 14.9381C4.26153 14.8658 4.38592 14.789 4.51324 14.7078L4.90373 14.4512C5.03665 14.3614 5.17226 14.2673 5.31031 14.1691L5.73156 13.8624C6.30565 14.1949 7.03165 14.2332 7.66154 13.902L8.31963 13.5583L7.99513 13.8393L7.49853 14.2572L7.01012 14.6533L6.51576 15.0383L6.27201 15.2221L5.79212 15.5711C3.41964 17.2538 1.46682 17.9842 0.627036 17.1444C-0.127551 16.3899 0.385655 14.7366 1.7183 12.6877L2.00557 12.2584C2.10512 12.1135 2.20843 11.9668 2.31534 11.8187L2.64672 11.3697L2.99885 10.9124L3.37083 10.4477C3.49804 10.2917 3.6284 10.1347 3.76178 9.97674L4.17083 9.5004L4.199 9.5ZM9.227 4.68141C9.3256 4.73007 9.40542 4.80989 9.45408 4.90849L10.3588 6.74174C10.3949 6.8148 10.4476 6.87677 10.5114 6.92358C10.5765 6.97132 10.6531 7.00331 10.7353 7.01526L12.7584 7.30923C13.0317 7.34894 13.221 7.60266 13.1813 7.87593C13.1655 7.98475 13.1143 8.08532 13.0355 8.16208L11.5716 9.58906C11.4537 9.70393 11.4 9.86943 11.4278 10.0316L11.7734 12.0466C11.8201 12.3187 11.6373 12.5772 11.3651 12.6239C11.2567 12.6425 11.1452 12.6248 11.0479 12.5736L9.23839 11.6223C9.09272 11.5457 8.91871 11.5457 8.77305 11.6223L6.96353 12.5736C6.7191 12.7021 6.41679 12.6082 6.28829 12.3637C6.23712 12.2664 6.21946 12.1549 6.23805 12.0466L6.58364 10.0316C6.61146 9.86943 6.55768 9.70393 6.43984 9.58906L4.97591 8.16208C4.77817 7.96933 4.77412 7.65277 4.96687 7.45503C5.04362 7.37629 5.1442 7.32504 5.25301 7.30923L7.27612 7.01526C7.43897 6.99159 7.57976 6.88931 7.65259 6.74174L8.55735 4.90849C8.67956 4.66087 8.97937 4.5592 9.227 4.68141ZM17.005 7.02949V10.3048C17.0025 10.4429 16.8885 10.5527 16.7505 10.5503C16.6735 10.5489 16.6014 10.5121 16.5558 10.45L16.4434 10.3028L16.0488 9.80293L15.6318 9.29371L15.22 8.808L16.5494 6.88721C16.628 6.77368 16.7837 6.74534 16.8973 6.82392C16.9647 6.87062 17.005 6.94744 17.005 7.02949ZM1.46044 6.90106L2.783 8.812L2.3754 9.29371L1.95836 9.80293L1.56377 10.3028C1.5304 10.346 1.49335 10.3944 1.45264 10.448C1.36951 10.5583 1.21265 10.5795 1.10283 10.4958C1.04002 10.4479 1.00352 10.3732 1.00433 10.2943L1.00487 7.04329C1.00489 6.90522 1.11684 6.79333 1.25491 6.79333C1.33695 6.79333 1.41375 6.8336 1.46044 6.90106ZM1.02176 1.5C1.30889 1.5 1.58003 1.62326 1.76846 1.83482L1.84396 1.93079L4.61602 5.93455C4.34485 6.03735 4.09759 6.19853 3.89274 6.40868L3.77754 6.53738C3.62916 6.71813 3.51734 6.91861 3.44197 7.12908L0.0889039 2.28461C0.031014 2.20099 0 2.1017 0 2C0 1.75454 0.176875 1.55039 0.410124 1.50806L0.5 1.5H1.02176ZM17.5014 1.5C17.7776 1.5 18.0014 1.72386 18.0014 2C18.0014 2.1017 17.9704 2.20099 17.9125 2.28461L14.566 7.11991C14.3686 6.57935 13.9423 6.13819 13.3878 5.93125L16.1575 1.93079C16.3443 1.66099 16.6515 1.5 16.9797 1.5H17.5014ZM4.65176 1.5C4.93889 1.5 5.21003 1.62326 5.39846 1.83482L5.47396 1.93079L7.155 4.36L6.53972 5.60667L6.066 5.675L3.7189 2.28461C3.66101 2.20099 3.63 2.1017 3.63 2C3.63 1.75454 3.80688 1.55039 4.04012 1.50806L4.13 1.5H4.65176ZM13.8714 1.5C14.1476 1.5 14.3714 1.72386 14.3714 2C14.3714 2.1017 14.3404 2.20099 14.2825 2.28461L11.935 5.674L11.4707 5.60667L10.851 4.351L12.5275 1.93079C12.7143 1.66099 13.0215 1.5 13.3497 1.5H13.8714ZM8.39666 0.128712C8.78419 -0.0429039 9.22724 -0.0429039 9.61477 0.128712L9.75727 0.201112L11.0528 0.948355C11.1525 1.00584 11.1976 1.12159 11.1699 1.22779L11.1391 1.29863L9.767 3.281L9.74802 3.2732C9.2469 3.07228 8.70502 3.0889 8.23523 3.28479L6.86953 1.3122C6.79094 1.19869 6.81925 1.04295 6.93277 0.964353L8.25416 0.201112L8.39666 0.128712Z" fill="#FF3F30"/>
<path fill-rule="evenodd" clip-rule="evenodd" d="M8.999 14.951L8.99969 18C8.79405 17.9992 8.58855 17.9563 8.39666 17.8713L8.25416 17.7989L6.93278 17.0359C6.81321 16.9668 6.77225 16.8139 6.84129 16.6944C6.85908 16.6635 6.88325 16.6369 6.91218 16.6162L6.9529 16.587C7.11466 16.4679 7.27813 16.345 7.4433 16.2183L7.94384 15.8272L8.44337 15.4222L8.999 14.951ZM4.199 9.49999L4.671 9.96099L4.48737 10.1779L4.09931 10.6503C3.97377 10.806 3.8521 10.9599 3.73447 11.1116L3.39388 11.5603C3.17513 11.8548 2.97322 12.1399 2.78954 12.4134L2.52784 12.8146C1.66092 14.1868 1.31492 15.211 1.6877 15.5838C1.99686 15.8929 2.75407 15.7077 3.78627 15.1409L4.14028 14.9381C4.26153 14.8658 4.38592 14.789 4.51324 14.7078L4.90373 14.4512C5.03665 14.3614 5.17226 14.2673 5.31031 14.1691L5.73156 13.8624C6.30565 14.1949 7.03165 14.2331 7.66154 13.902L8.31963 13.5582L7.99513 13.8393L7.49853 14.2572L7.01012 14.6533L6.51576 15.0383L6.27201 15.222L5.79212 15.5711C3.41964 17.2538 1.46682 17.9842 0.627036 17.1444C-0.127551 16.3898 0.385655 14.7366 1.7183 12.6877L2.00557 12.2583C2.10512 12.1134 2.20843 11.9668 2.31534 11.8187L2.64672 11.3697L2.99885 10.9123L3.37083 10.4477C3.49804 10.2917 3.6284 10.1347 3.76178 9.97672L4.17083 9.50039L4.199 9.49999ZM1.25491 6.79332C1.33695 6.79332 1.41375 6.83359 1.46044 6.90104L2.783 8.81199L2.3754 9.2937L1.95836 9.80292L1.56377 10.3028C1.5304 10.346 1.49335 10.3944 1.45264 10.448C1.36951 10.5583 1.21265 10.5795 1.10283 10.4958C1.04002 10.4479 1.00352 10.3732 1.00433 10.2943L1.00487 7.04328C1.00489 6.90521 1.11684 6.79332 1.25491 6.79332ZM1.02176 1.49999C1.30889 1.49999 1.58003 1.62325 1.76846 1.83481L1.84396 1.93078L4.61602 5.93454C4.34485 6.03733 4.09759 6.19852 3.89274 6.40867L3.77754 6.53737C3.62916 6.71812 3.51734 6.9186 3.44197 7.12907L0.0889039 2.28459C0.031014 2.20097 0 2.10169 0 1.99999C0 1.75453 0.176875 1.55038 0.410124 1.50804L0.5 1.49999H1.02176ZM4.65176 1.49999C4.93889 1.49999 5.21003 1.62325 5.39846 1.83481L5.47396 1.93078L7.155 4.35999L6.53972 5.60666L6.066 5.67499L3.7189 2.28459C3.66101 2.20097 3.63 2.10169 3.63 1.99999C3.63 1.75453 3.80688 1.55038 4.04012 1.50804L4.13 1.49999H4.65176ZM8.99969 0L8.99941 3.13C8.73587 3.13104 8.47607 3.18435 8.23523 3.28477L6.86953 1.31219C6.79094 1.19867 6.81925 1.04293 6.93277 0.964341L8.25416 0.2011L8.39666 0.1287C8.58855 0.0437222 8.79405 0.00082237 8.99969 0ZM9.227 4.6814C9.3256 4.73006 9.40542 4.80987 9.45408 4.90848L10.3588 6.74172C10.3954 6.81589 10.4492 6.87861 10.5143 6.92567L9.00943 8.99699L13.1621 7.64946C13.1852 7.72024 13.1928 7.79727 13.1813 7.87592C13.1655 7.98474 13.1143 8.08531 13.0355 8.16207L11.5716 9.58905C11.5125 9.64661 11.4696 9.71688 11.4449 9.79308L9.01043 9.00399L11.5746 12.5356C11.5144 12.5794 11.4435 12.6104 11.3651 12.6239C11.2567 12.6425 11.1452 12.6248 11.0479 12.5736L9.23839 11.6223C9.16525 11.5839 9.08497 11.5647 9.00472 11.5649L9.00343 9.00399L6.43718 12.5359C6.37681 12.4921 6.32533 12.4342 6.28829 12.3637C6.23712 12.2664 6.21946 12.1549 6.23805 12.0465L6.58364 10.0316C6.59764 9.94998 6.59097 9.86751 6.56587 9.79108L8.99843 8.99999L4.84921 7.64968C4.87215 7.5788 4.91135 7.51198 4.96687 7.45502C5.04362 7.37628 5.1442 7.32503 5.25301 7.30922L7.27612 7.01524C7.35755 7.00341 7.43346 6.97193 7.49811 6.92495L9.00343 8.99499L9.00546 4.62965C9.07998 4.62956 9.15565 4.64618 9.227 4.6814Z" fill="black" fill-opacity="0.2"/>
<path fill-rule="evenodd" clip-rule="evenodd" d="M1.02176 1.5C1.30889 1.5 1.58003 1.62326 1.76846 1.83482L1.84396 1.93079L3.059 3.685L1.476 4.29L0.0889039 2.28461C0.031014 2.20099 0 2.1017 0 2C0 1.75454 0.176875 1.55039 0.410124 1.50806L0.5 1.5H1.02176ZM17.5014 1.5C17.7776 1.5 18.0014 1.72386 18.0014 2C18.0014 2.1017 17.9704 2.20099 17.9125 2.28461L16.5254 4.2888L14.943 3.684L16.1575 1.93079C16.3443 1.66099 16.6515 1.5 16.9797 1.5H17.5014ZM4.65176 1.5C4.93889 1.5 5.21003 1.62326 5.39846 1.83482L5.47396 1.93079L5.929 2.589L4.347 3.193L3.7189 2.28461C3.66101 2.20099 3.63 2.1017 3.63 2C3.63 1.75454 3.80688 1.55039 4.04012 1.50806L4.13 1.5H4.65176ZM13.8714 1.5C14.1476 1.5 14.3714 1.72386 14.3714 2C14.3714 2.1017 14.3404 2.20099 14.2825 2.28461L13.654 3.191L12.072 2.586L12.5275 1.93079C12.7143 1.66099 13.0215 1.5 13.3497 1.5H13.8714ZM9.61477 0.128712L9.75727 0.201112L11.0528 0.948355C11.1525 1.00584 11.1976 1.12159 11.1699 1.22779L11.1391 1.29863L10.629 2.035L9.75727 1.70111L9.61477 1.62871C9.27568 1.47855 8.89409 1.45978 8.54437 1.5724L8.39666 1.62871L8.25416 1.70111L7.372 2.038L6.86953 1.3122C6.79094 1.19869 6.81925 1.04295 6.93277 0.964353L8.25416 0.201112L8.39666 0.128712C8.78419 -0.0429039 9.22724 -0.0429039 9.61477 0.128712ZM7.72775 15.996L8.25416 16.2999L8.39666 16.3723C8.73575 16.5225 9.11734 16.5412 9.46706 16.4286L9.61477 16.3723L9.75727 16.2999L10.2797 15.998L10.8873 16.4624L11.1023 16.6206C11.214 16.7018 11.2382 16.8583 11.1566 16.9697C11.1361 16.9977 11.11 17.0211 11.0791 17.0371L9.75727 17.7989L9.61477 17.8713C9.22724 18.0429 8.78419 18.0429 8.39666 17.8713L8.25416 17.7989L6.93278 17.0359C6.81321 16.9668 6.77225 16.8139 6.84129 16.6944C6.85908 16.6636 6.88325 16.6369 6.91218 16.6162L6.9529 16.587C7.11466 16.4679 7.27813 16.345 7.4433 16.2183L7.72775 15.996ZM13.8364 9.5004L14.2454 9.97674L14.4432 10.213L14.8248 10.6809L15.0083 10.9124L15.3605 11.3697L15.6919 11.8187C15.7453 11.8928 15.7979 11.9664 15.8495 12.0397L16.1481 12.4744C17.5846 14.6215 18.1608 16.3638 17.3802 17.1444C16.4564 18.0682 14.1859 17.092 11.4914 15.0383L11.6771 15.1762C14.181 16.9839 15.4048 15.8082 14.7509 15.4132L14.6361 15.3555C15.4551 15.7497 16.0533 15.8499 16.3195 15.5838C16.6923 15.211 16.3463 14.1868 15.4794 12.8146L15.2177 12.4134C15.0799 12.2083 14.9319 11.9966 14.7742 11.7794L14.4461 11.3376L14.0013 10.7668L13.5198 10.1779L13.336 9.963L13.811 9.5L13.8364 9.5004ZM4.199 9.5L4.671 9.961L4.48737 10.1779L4.09931 10.6503C3.97377 10.806 3.8521 10.9599 3.73447 11.1116L3.39388 11.5603C3.17513 11.8548 2.97322 12.1399 2.78954 12.4134L2.52784 12.8146C1.66092 14.1868 1.31492 15.211 1.6877 15.5838C1.99686 15.8929 2.75407 15.7077 3.78627 15.141L3.70107 15.1923C2.9094 15.7192 4.79878 16.1552 5.70492 15.6272L5.783 15.577L5.5563 15.7362C3.29069 17.3007 1.43883 17.9562 0.627036 17.1444C-0.127551 16.3899 0.385655 14.7366 1.7183 12.6877L2.00557 12.2584C2.10512 12.1135 2.20843 11.9668 2.31534 11.8187L2.64672 11.3697L2.99885 10.9124L3.37083 10.4477C3.49804 10.2917 3.6284 10.1347 3.76178 9.97674L4.17083 9.5004L4.199 9.5ZM16.8973 6.82392C16.9647 6.87062 17.005 6.94744 17.005 7.02949V10.3048C17.0025 10.4429 16.8885 10.5527 16.7505 10.5503C16.6735 10.5489 16.6014 10.5121 16.5558 10.45L16.5494 6.88721C16.628 6.77368 16.7837 6.74534 16.8973 6.82392ZM1.25491 6.79333C1.33695 6.79333 1.41375 6.8336 1.46044 6.90106L1.47507 9.46215L1.46135 10.3856L1.45578 10.4383C1.45477 10.4434 1.45264 10.448 1.45264 10.448C1.36951 10.5583 1.21265 10.5795 1.10283 10.4958C1.04002 10.4479 1.00352 10.3732 1.00435 10.2943L1.00487 7.04329C1.00489 6.90522 1.11684 6.79333 1.25491 6.79333Z" fill="black" fill-opacity="0.2"/>
<path fill-rule="evenodd" clip-rule="evenodd" d="M9.00603 4.62988L9.00746 9.00565L7.49707 6.92592C7.56219 6.87886 7.61596 6.81613 7.65257 6.74195L8.55733 4.90871C8.64442 4.73224 8.82171 4.62988 9.00603 4.62988Z" fill="white" fill-opacity="0.64"/>
</svg>
