<?xml version="1.0" encoding="utf-8"?>
<!-- Generator: Adobe Illustrator 23.1.1, SVG Export Plug-In . SVG Version: 6.00 Build 0)  -->
<svg version="1.1" id="Layer_1" xmlns="http://www.w3.org/2000/svg" xmlns:xlink="http://www.w3.org/1999/xlink" x="0px" y="0px"
	 viewBox="0 0 512 512" style="enable-background:new 0 0 512 512;" xml:space="preserve">
<style type="text/css">
	.st0{fill:#E1CAF5;}
	.st1{fill:#FFFFFF;}
	.st2{fill:#8F8CC4;}
	.st3{fill:#F3C366;}
	.st4{fill:#FDF5EB;}
	.st5{fill:#009D90;}
	.st6{fill:#F3C365;}
	.st7{fill:#03806E;}
	.st8{fill:#FFF5E8;}
	.st9{fill:#FFF5EA;}
	.st10{fill:#080808;}
</style>
<path class="st0" d="M479.97,506.5H31.53C16.88,506.5,5,494.62,5,479.97V31.53C5,16.88,16.88,5,31.53,5h448.43
	c14.65,0,26.53,11.88,26.53,26.53v448.43C506.5,494.62,494.62,506.5,479.97,506.5z"/>
<g>
	<path class="st1" d="M447.45,192.42c2.28-1.18,1.12-3.29,1.14-4.92c0.13-8.42,0.07-16.84,0.06-25.26
		C448.5,92.9,395.61,39.17,326.38,38.03c-20.66,0.04-41.32,0.07-61.98,0.1c-5.72,0.06-11.44,0.13-17.16,0.2
		c-30.83-0.1-61.67-0.23-92.5-0.29c-27.14-0.05-54.28,0.08-81.42-0.09c-5.12-0.04-8.64,0.38-6.49,6.8c0.19,0.56,0.08,1.22,0.13,1.84
		c2.32,35.11,35.3,66.97,70.49,68.11c-6.42,16.38-10.77,33.24-10.79,50.94c-0.06,43.82,0.07,87.66,0.13,131.48
		c-0.66,1.86-2.29,2.85-3.65,4.07c-16.24,14.46-24.61,32.79-24.84,54.3c-0.43,40.84-0.1,81.69-0.19,122.54
		c-0.01,3.46,1.09,4.66,4.59,4.59c10.25-0.19,20.52-0.1,30.78-0.07c1.91,0.01,3.65-0.35,5.21-1.45c1.07,0.47,1.8,1.46,3.29,1.28
		c22.91-2.75,45.41-7.33,66.33-17.36c68.18-32.67,107.71-86.7,116.36-161.69c4.24-36.72,1.19-73.9,1.27-110.88
		c14.8,0.08,29.61,0.26,44.41,0.24C396.05,192.66,421.75,192.51,447.45,192.42z"/>
	<path class="st2" d="M325.94,192.45c-0.06,36.97,2.97,74.16-1.26,110.88c-8.64,74.99-48.17,129.02-116.36,161.69
		c-20.93,10.02-43.42,14.6-66.33,17.36c-1.48,0.18-2.21-0.81-3.29-1.28c1.58-1.83,3.87-0.93,5.79-1.42
		c35.57-9.1,63.19-28.99,81.49-60.91c13.96-24.36,20.53-50.77,14.98-78.66c-7.82-39.32-46.92-63.74-86.13-55.22
		c-10.24,2.22-19.08,7.28-28.04,12.23c-0.06-43.82-0.19-87.66-0.13-131.48c0.02-17.7,4.37-34.56,10.79-50.94
		c1.67-1.1,2.04-3.01,2.87-4.62c16.86-32.92,42.91-54.96,78.15-66.23c9.39-3.01,19.14-3.95,28.77-5.53
		c5.72-0.06,11.44-0.13,17.16-0.2c-2.04,1.98-4.82,1.78-7.29,2.41c-34.04,8.77-59.08,42.19-57.58,76.94
		c1.84,42.51,35.17,74.73,77.71,75.02c16.24,0.11,32.5,0,48.74-0.01C326,192.5,325.94,192.45,325.94,192.45z"/>
	<path class="st3" d="M126.8,297.13c8.97-4.94,17.81-10,28.04-12.23c39.21-8.52,78.32,15.9,86.13,55.22
		c5.54,27.89-1.02,54.3-14.98,78.66c-18.3,31.92-45.92,51.81-81.49,60.91c-1.93,0.49-4.21-0.42-5.79,1.42
		c-1.56,1.1-3.3,1.46-5.21,1.45c-10.26-0.03-20.53-0.12-30.78,0.07c-3.5,0.06-4.6-1.13-4.59-4.59c0.09-40.84-0.23-81.7,0.19-122.54
		c0.22-21.51,8.6-39.83,24.84-54.3C124.52,299.98,126.15,298.99,126.8,297.13z M125.28,402.29c0,12.35,0.13,24.69-0.06,37.03
		c-0.06,4.29,1.33,5.42,5.47,4.46c10.87-2.54,19.08-10.19,20.4-21.29c2.31-19.44,1.11-39.01,0.63-58.51
		c-0.2-8.28-6.39-12.79-14.04-12.36c-7.21,0.39-12.24,6-12.35,14.26C125.17,378.02,125.29,390.16,125.28,402.29z M173.39,377.6
		c0,10.49,0.11,20.97-0.06,31.46c-0.06,3.67,1.28,4.71,4.76,4.12c11.8-1.99,21.09-12.37,21.27-24.48
		c0.21-13.98,0.07-27.96,0.06-41.94c0-2.68-0.15-5.31-2.07-7.53c-3.74-4.34-7.98-7.01-14.02-5.11c-6.28,1.97-9.69,6.07-9.87,13.27
		C173.22,357.45,173.4,367.52,173.39,377.6z"/>
	<path class="st4" d="M326,192.5c-16.25,0.01-32.5,0.12-48.75,0.01c-42.54-0.3-75.87-32.51-77.71-75.02
		c-1.51-34.74,23.54-68.16,57.58-76.94c2.47-0.64,5.26-0.43,7.29-2.41c20.66-0.04,41.32-0.07,61.98-0.1
		c-0.06,39.86-0.14,79.72-0.2,119.59C325.08,169.24,325.48,180.87,326,192.5z M299.16,104.98c-0.47-1.04-0.98-2.87-2.02-4.31
		c-7.48-10.39-27.6-10.42-35.43-0.1c-2.71,3.58-2.8,7.3,0.08,10.72c3.03,3.58,7.17,4.77,10.96,1.86c4.68-3.6,8.59-3.9,13.16-0.03
		c2.55,2.17,5.77,1.97,8.69,0.24C297.46,111.66,298.93,109.08,299.16,104.98z"/>
	<path class="st5" d="M326.19,157.62c0.06-39.86,0.14-79.72,0.2-119.59c69.22,1.15,122.11,54.87,122.26,124.21
		c0.02,8.42,0.07,16.84-0.06,25.26c-0.03,1.63,1.13,3.74-1.14,4.92c-6.68-8.1-14.17-15.5-22.06-22.32
		c-9.7-8.4-21.18-12.66-34.45-12.42C369.37,158.06,347.78,157.68,326.19,157.62z"/>
	<path class="st6" d="M247.25,38.33c-9.64,1.57-19.39,2.53-28.77,5.53c-35.23,11.27-61.29,33.31-78.15,66.23
		c-0.82,1.61-1.2,3.52-2.87,4.62c-35.19-1.13-68.16-32.99-70.49-68.11c-0.04-0.61,0.06-1.28-0.13-1.84
		c-2.15-6.42,1.37-6.84,6.49-6.8c27.14,0.18,54.28,0.05,81.42,0.09C185.59,38.1,216.42,38.24,247.25,38.33z"/>
	<path class="st7" d="M326.19,157.62c21.58,0.06,43.19,0.43,64.76,0.05c13.27-0.24,24.75,4.03,34.45,12.42
		c7.89,6.83,15.36,14.23,22.06,22.32c-25.7,0.09-51.4,0.24-77.1,0.27c-14.8,0.02-29.61-0.16-44.41-0.24l0.06,0.05
		C325.48,180.87,325.08,169.24,326.19,157.62z"/>
	<path class="st8" d="M125.28,402.29c0-12.14-0.11-24.28,0.04-36.42c0.1-8.26,5.14-13.86,12.35-14.26
		c7.65-0.42,13.84,4.08,14.04,12.37c0.48,19.5,1.68,39.08-0.63,58.51c-1.32,11.1-9.52,18.75-20.4,21.29
		c-4.14,0.96-5.53-0.18-5.47-4.46C125.41,426.99,125.28,414.64,125.28,402.29z"/>
	<path class="st9" d="M173.39,377.6c0.01-10.07-0.18-20.15,0.07-30.22c0.18-7.19,3.59-11.29,9.87-13.27
		c6.04-1.9,10.27,0.78,14.02,5.11c1.92,2.22,2.06,4.85,2.07,7.53c0.01,13.98,0.15,27.96-0.06,41.94
		c-0.19,12.11-9.47,22.49-21.27,24.48c-3.48,0.58-4.81-0.45-4.76-4.12C173.51,398.57,173.39,388.09,173.39,377.6z"/>
	<path class="st10" d="M299.16,104.98c-0.22,4.1-1.7,6.68-4.55,8.38c-2.92,1.73-6.13,1.93-8.69-0.24
		c-4.57-3.87-8.48-3.57-13.16,0.03c-3.79,2.91-7.93,1.73-10.96-1.86c-2.88-3.42-2.8-7.14-0.08-10.72
		c7.83-10.32,27.95-10.29,35.43,0.1C298.17,102.11,298.68,103.94,299.16,104.98z"/>
</g>
</svg>
