<?xml version="1.0" encoding="utf-8"?>
<!-- Generator: Adobe Illustrator 23.1.1, SVG Export Plug-In . SVG Version: 6.00 Build 0)  -->
<svg version="1.1" id="Layer_1" xmlns="http://www.w3.org/2000/svg" xmlns:xlink="http://www.w3.org/1999/xlink"
	viewBox="0 0 512 512" xml:space="preserve">
	<style type="text/css">
		.st0 {
			fill: #FFFFFF;
		}

		.st1 {
			fill: #8F8CC4;
		}

		.st2 {
			fill: #F3C366;
		}

		.st3 {
			fill: #FDF5EB;
		}

		.st4 {
			fill: #009D90;
		}

		.st5 {
			fill: #F3C365;
		}

		.st6 {
			fill: #03806E;
		}

		.st7 {
			fill: #FFF5E8;
		}

		.st8 {
			fill: #FFF5EA;
		}

		.st9 {
			fill: #080808;
		}
	</style>
	<g>
		<path class="st0" d="M456.26,179.07c2.46-1.28,1.21-3.55,1.23-5.32c0.14-9.1,0.08-18.19,0.06-27.29
		c-0.16-74.92-57.3-132.97-132.1-134.21c-22.32,0.04-44.65,0.08-66.97,0.11c-6.18,0.07-12.36,0.14-18.54,0.22
		c-33.31-0.11-66.63-0.25-99.94-0.31c-29.32-0.05-58.65,0.09-87.97-0.1c-5.53-0.04-9.33,0.41-7.01,7.35
		c0.2,0.61,0.09,1.32,0.14,1.99c2.51,37.94,38.14,72.36,76.16,73.59c-6.94,17.7-11.64,35.92-11.66,55.04
		c-0.06,47.35,0.08,94.71,0.14,142.06c-0.71,2.01-2.47,3.08-3.94,4.4c-17.55,15.62-26.59,35.43-26.84,58.67
		c-0.46,44.13-0.11,88.26-0.21,132.4c-0.01,3.74,1.18,5.04,4.96,4.96c11.08-0.21,22.17-0.11,33.26-0.08
		c2.06,0.01,3.94-0.38,5.63-1.57c1.16,0.51,1.95,1.58,3.55,1.38c24.75-2.97,49.06-7.92,71.67-18.76
		c73.67-35.3,116.38-93.68,125.72-174.7c4.58-39.67,1.29-79.85,1.37-119.8c15.99,0.09,31.99,0.28,47.98,0.26
		C400.72,179.33,428.49,179.17,456.26,179.07z" />
		<path class="st1" d="M324.97,179.1c-0.07,39.95,3.21,80.13-1.36,119.8c-9.34,81.02-52.05,139.4-125.72,174.7
		c-22.61,10.83-46.91,15.78-71.67,18.76c-1.6,0.19-2.39-0.88-3.55-1.38c1.71-1.98,4.18-1,6.26-1.53
		c38.43-9.83,68.28-31.32,88.05-65.81c15.08-26.32,22.18-54.85,16.19-84.99c-8.45-42.48-50.7-68.87-93.06-59.66
		c-11.06,2.4-20.61,7.87-30.3,13.21c-0.06-47.35-0.2-94.71-0.14-142.06c0.02-19.12,4.72-37.34,11.66-55.04
		c1.8-1.19,2.2-3.25,3.1-4.99c18.22-35.57,46.36-59.38,84.44-71.56c10.15-3.25,20.68-4.27,31.09-5.97
		c6.18-0.07,12.36-0.14,18.54-0.22c-2.2,2.14-5.21,1.92-7.88,2.6c-36.78,9.48-63.83,45.59-62.21,83.13
		c1.99,45.93,38,80.74,83.96,81.06c17.55,0.12,35.11,0,52.66-0.01C325.03,179.15,324.97,179.1,324.97,179.1z" />
		<path class="st2" d="M109.81,292.2c9.69-5.34,19.24-10.8,30.3-13.21c42.36-9.21,84.62,17.18,93.06,59.66
		c5.99,30.13-1.1,58.67-16.19,84.99c-19.77,34.49-49.62,55.98-88.05,65.81c-2.08,0.53-4.55-0.45-6.26,1.53
		c-1.69,1.19-3.57,1.58-5.63,1.57c-11.09-0.03-22.18-0.13-33.26,0.08c-3.78,0.07-4.97-1.22-4.96-4.96
		c0.1-44.13-0.25-88.27,0.21-132.4c0.24-23.24,9.29-43.04,26.84-58.67C107.34,295.28,109.1,294.21,109.81,292.2z M108.16,405.83
		c0,13.34,0.14,26.68-0.07,40.01c-0.07,4.63,1.44,5.86,5.91,4.82c11.75-2.74,20.61-11.01,22.04-23c2.5-21,1.2-42.15,0.68-63.22
		c-0.22-8.95-6.9-13.82-15.17-13.36c-7.79,0.42-13.23,6.48-13.34,15.41C108.04,379.6,108.17,392.72,108.16,405.83z M160.14,379.15
		c0,11.33,0.12,22.66-0.07,33.99c-0.07,3.97,1.38,5.09,5.14,4.45c12.75-2.15,22.79-13.37,22.98-26.45
		c0.23-15.1,0.08-30.21,0.07-45.31c0-2.9-0.16-5.74-2.24-8.14c-4.04-4.69-8.62-7.57-15.15-5.52c-6.78,2.13-10.47,6.56-10.66,14.34
		C159.96,357.38,160.16,368.26,160.14,379.15z" />
		<path class="st3" d="M325.03,179.15c-17.56,0.01-35.11,0.13-52.67,0.01c-45.96-0.32-81.97-35.13-83.96-81.06
		c-1.63-37.54,25.43-73.65,62.21-83.13c2.67-0.69,5.68-0.46,7.88-2.6c22.32-0.04,44.65-0.08,66.97-0.11
		c-0.07,43.07-0.15,86.14-0.22,129.21C324.04,154.02,324.47,166.59,325.03,179.15z M296.03,84.59c-0.51-1.12-1.06-3.1-2.18-4.66
		c-8.08-11.23-29.82-11.26-38.28-0.11c-2.93,3.87-3.02,7.89,0.09,11.58c3.27,3.87,7.75,5.15,11.84,2.01
		c5.06-3.89,9.28-4.21,14.22-0.03c2.76,2.34,6.23,2.13,9.39,0.26C294.2,91.81,295.79,89.02,296.03,84.59z" />
		<path class="st4" d="M325.24,141.47c0.07-43.07,0.15-86.14,0.22-129.21c74.79,1.24,131.94,59.29,132.1,134.21
		c0.02,9.1,0.08,18.2-0.06,27.29c-0.03,1.76,1.22,4.04-1.23,5.32c-7.22-8.75-15.31-16.75-23.83-24.12
		c-10.48-9.08-22.88-13.68-37.22-13.42C371.9,141.94,348.57,141.53,325.24,141.47z" />
		<path class="st5" d="M239.95,12.58c-10.42,1.7-20.95,2.73-31.09,5.97c-38.07,12.18-66.22,35.99-84.44,71.56
		c-0.89,1.74-1.3,3.8-3.1,4.99c-38.02-1.22-73.65-35.65-76.16-73.59c-0.04-0.66,0.07-1.38-0.14-1.99c-2.32-6.94,1.48-7.39,7.01-7.35
		c29.32,0.19,58.65,0.05,87.97,0.1C173.33,12.33,206.64,12.48,239.95,12.58z" />
		<path class="st6" d="M325.24,141.47c23.32,0.06,46.66,0.47,69.97,0.05c14.34-0.26,26.74,4.35,37.22,13.42
		c8.52,7.38,16.6,15.37,23.83,24.12c-27.77,0.1-55.54,0.26-83.3,0.29c-15.99,0.02-31.99-0.17-47.98-0.26c0,0,0.06,0.05,0.06,0.05
		C324.47,166.59,324.04,154.02,325.24,141.47z" />
		<path class="st7" d="M108.16,405.83c0-13.12-0.12-26.23,0.04-39.35c0.11-8.93,5.55-14.98,13.34-15.41
		c8.27-0.45,14.95,4.41,15.17,13.36c0.52,21.07,1.82,42.22-0.68,63.22c-1.43,11.99-10.29,20.26-22.04,23
		c-4.47,1.04-5.98-0.19-5.91-4.82C108.3,432.51,108.16,419.17,108.16,405.83z" />
		<path class="st8" d="M160.15,379.15c0.01-10.88-0.19-21.77,0.08-32.65c0.19-7.77,3.88-12.2,10.66-14.34
		c6.53-2.05,11.1,0.84,15.15,5.52c2.07,2.4,2.23,5.24,2.24,8.14c0.01,15.11,0.16,30.21-0.07,45.31
		c-0.2,13.08-10.23,24.3-22.98,26.45c-3.76,0.63-5.2-0.49-5.14-4.45C160.27,401.81,160.14,390.48,160.15,379.15z" />
		<path class="st9" d="M296.03,84.59c-0.24,4.43-1.84,7.22-4.92,9.05c-3.15,1.87-6.62,2.08-9.39-0.26
		c-4.94-4.18-9.16-3.86-14.22,0.03c-4.09,3.14-8.57,1.87-11.84-2.01c-3.11-3.69-3.02-7.71-0.09-11.58
		c8.46-11.15,30.2-11.12,38.28,0.11C294.97,81.49,295.52,83.47,296.03,84.59z" />
	</g>
</svg>