<svg width="15" height="19" viewBox="0 0 15 19" fill="none" xmlns="http://www.w3.org/2000/svg">
    <path
        d="M7.5 12.6267C9.46754 12.6267 11.0625 11.1577 11.0625 9.34546V3.87671C11.0625 2.0645 9.46754 0.595459 7.5 0.595459C5.53246 0.595459 3.9375 2.0645 3.9375 3.87671V9.34546C3.9375 11.1577 5.53246 12.6267 7.5 12.6267ZM13.4375 7.15796H12.8438C12.5157 7.15796 12.25 7.40269 12.25 7.70483V9.34546C12.25 11.9021 9.85682 13.9536 7.02537 13.6993C4.5576 13.4774 2.75 11.4342 2.75 9.15063V7.70483C2.75 7.40269 2.4843 7.15796 2.15625 7.15796H1.5625C1.23445 7.15796 0.96875 7.40269 0.96875 7.70483V9.07749C0.96875 12.1414 3.34264 14.8727 6.60938 15.2876V16.4548H4.53125C4.2032 16.4548 3.9375 16.6996 3.9375 17.0017V17.5486C3.9375 17.8507 4.2032 18.0955 4.53125 18.0955H10.4688C10.7968 18.0955 11.0625 17.8507 11.0625 17.5486V17.0017C11.0625 16.6996 10.7968 16.4548 10.4688 16.4548H8.39062V15.3006C11.5713 14.8986 14.0312 12.384 14.0312 9.34546V7.70483C14.0312 7.40269 13.7655 7.15796 13.4375 7.15796Z"
        fill="white" />
</svg>