<svg width="16" height="16" viewBox="0 0 16 16" fill="none" xmlns="http://www.w3.org/2000/svg">
<path fill-rule="evenodd" clip-rule="evenodd" d="M8.1982 9.37943L8.28589 9.544L10.8647 14.0333C10.9868 14.246 10.9136 14.5174 10.701 14.6398L8.63024 15.832L8.42915 15.9254C8.15325 16.0249 7.8506 16.0249 7.5747 15.9254L7.37361 15.832L5.30018 14.638C5.08763 14.5156 5.01441 14.2443 5.13655 14.0316L7.71411 9.544L7.80168 9.37955C7.85578 9.27006 7.98842 9.22515 8.09794 9.27925C8.14145 9.30074 8.17668 9.33594 8.1982 9.37943ZM15.5554 1.77778C15.6328 1.77778 15.7088 1.79798 15.776 1.83637C15.9655 1.94466 16.045 2.17121 15.9748 2.36988L15.9413 2.44279L13.016 7.55886C12.8792 7.79803 12.8622 8.08487 12.9647 8.33596L13.016 8.44114L15.9413 13.5572C15.9797 13.6244 15.9999 13.7004 15.9999 13.7778C15.9999 13.996 15.8427 14.1774 15.6353 14.2151L15.5554 14.2222H13.2708C12.8358 14.2222 12.4311 14.0104 12.1827 13.6599L12.113 13.5506L9.44372 8.88228C9.15718 8.38116 9.1333 7.7754 9.37208 7.25684L9.44372 7.11772L12.113 2.4494C12.3289 2.07183 12.7137 1.82569 13.1414 1.78406L13.2708 1.77778H15.5554ZM2.72916 1.77778C3.20767 1.77778 3.64951 2.03407 3.88699 2.4494L6.55628 7.11772C6.86886 7.6644 6.86886 8.3356 6.55628 8.88228L3.88699 13.5506C3.64951 13.9659 3.20767 14.2222 2.72916 14.2222H0.444627C0.199108 14.2222 7.59372e-05 14.0232 7.59372e-05 13.7778C7.59372e-05 13.7004 0.0202786 13.6244 0.0586857 13.5572L2.98399 8.44114C3.14029 8.1678 3.14029 7.8322 2.98399 7.55886L0.0586857 2.44279C-0.0631616 2.22969 0.0108537 1.95819 0.224003 1.83637C0.29119 1.79798 0.367238 1.77778 0.444627 1.77778H2.72916ZM8.42915 0.0746496L8.63024 0.167962L10.701 1.36018C10.9136 1.48257 10.9868 1.75398 10.8647 1.96666L8.28589 6.456L8.19832 6.62045C8.14421 6.72994 8.01157 6.77485 7.90206 6.72075C7.87305 6.70642 7.84773 6.686 7.82769 6.66109L7.80173 6.62045L7.71411 6.456L5.13655 1.9684C5.01441 1.75574 5.08763 1.48435 5.30018 1.36195L7.37361 0.167962L7.5747 0.0746496C7.8506 -0.0248832 8.15325 -0.0248832 8.42915 0.0746496Z" fill="#30C1FF"/>
<path fill-rule="evenodd" clip-rule="evenodd" d="M8.00231 9.25632L8.00193 16C7.85729 16 7.71265 15.9751 7.5747 15.9254L7.37361 15.832L5.30018 14.638C5.08763 14.5156 5.01441 14.2443 5.13655 14.0316L7.71411 9.544L7.80168 9.37955C7.84057 9.30085 7.92003 9.25552 8.00231 9.25632ZM2.72916 1.77778C3.20767 1.77778 3.64951 2.03407 3.88699 2.4494L6.55628 7.11772C6.86887 7.6644 6.86887 8.3356 6.55628 8.88228L3.88699 13.5506C3.64951 13.9659 3.20767 14.2222 2.72916 14.2222H0.444627C0.199108 14.2222 7.59372e-05 14.0232 7.59372e-05 13.7778C7.59372e-05 13.7004 0.0202786 13.6244 0.0586857 13.5572L2.98399 8.44114C3.14029 8.1678 3.14029 7.8322 2.98399 7.55886L0.0586857 2.44279C-0.0631616 2.22969 0.0108537 1.95819 0.224003 1.83637C0.29119 1.79798 0.367238 1.77778 0.444627 1.77778H2.72916ZM8.00193 0L8.00237 6.74368C7.96866 6.74405 7.93435 6.7367 7.90206 6.72075C7.87305 6.70642 7.84773 6.686 7.82769 6.66109L7.80173 6.62045L7.71411 6.456L5.13655 1.9684C5.01441 1.75574 5.08763 1.48435 5.30018 1.36195L7.37361 0.167962L7.5747 0.0746496C7.66667 0.041472 7.76161 0.0193536 7.85754 0.00829442L8.00193 0Z" fill="black" fill-opacity="0.2"/>
<path fill-rule="evenodd" clip-rule="evenodd" d="M6.54921 8.86857C6.5567 8.86709 6.56024 8.86864 6.55987 8.87321L6.55628 8.88234L3.88699 13.5507C3.6711 13.9282 3.28632 14.1744 2.85863 14.216L2.72916 14.2223H0.444627C0.367238 14.2223 0.29119 14.2021 0.224003 14.1637C0.034537 14.0554 -0.044996 13.8288 0.0252463 13.6302L0.0586857 13.5573L0.863819 12.9591L4.09142 10.5804L5.38952 9.64261L6.06811 9.16709L6.32582 8.99508L6.45703 8.91366L6.51495 8.88205L6.54921 8.86857ZM9.45071 8.86857L9.48498 8.88205L9.54289 8.91366L9.79113 9.07202L10.387 9.48409L12.0823 10.7072L15.1361 12.9591L15.9412 13.5573C16.0631 13.7704 15.9891 14.0419 15.7759 14.1637C15.7087 14.2021 15.6327 14.2223 15.5553 14.2223H13.2708C12.7922 14.2223 12.3504 13.966 12.1129 13.5507L9.44364 8.88234C9.43713 8.87095 9.43949 8.86636 9.45071 8.86857ZM15.5553 1.77783C15.6327 1.77783 15.7087 1.79803 15.7759 1.83643C15.9654 1.94471 16.0449 2.17126 15.9747 2.36994L15.9412 2.44285L15.1361 3.04098L12.0823 5.2929L10.387 6.51602L9.79113 6.92809L9.54289 7.08645L9.48498 7.11806L9.45071 7.13154C9.44323 7.13301 9.43969 7.13146 9.44006 7.12689L9.44364 7.11777L12.1129 2.44945C12.3288 2.07189 12.7136 1.82575 13.1413 1.78411L13.2708 1.77783H15.5553ZM2.72916 1.77783C3.20767 1.77783 3.64951 2.03413 3.88699 2.44945L6.55628 7.11777C6.56279 7.12916 6.56044 7.13375 6.54921 7.13154L6.51495 7.11806L6.45703 7.08645L6.32582 7.00503L6.06811 6.83302L5.38952 6.3575L4.09142 5.41976L0.863819 3.04098L0.0586857 2.44285C-0.0631615 2.22975 0.0108537 1.95825 0.224003 1.83643C0.29119 1.79803 0.367238 1.77783 0.444627 1.77783H2.72916Z" fill="black" fill-opacity="0.2"/>
<path fill-rule="evenodd" clip-rule="evenodd" d="M8.00188 0L8.00211 6.74368C7.96847 6.74402 7.93424 6.73667 7.90202 6.72075C7.87301 6.70642 7.84768 6.686 7.82764 6.66109L7.80168 6.62045L7.71406 6.456L5.13651 1.9684C5.01436 1.75574 5.08758 1.48435 5.30014 1.36195L7.37357 0.167962L7.57465 0.0746496C7.7126 0.0248832 7.85724 0 8.00188 0Z" fill="white" fill-opacity="0.64"/>
</svg>
