<svg width="16" height="16" viewBox="0 0 16 16" fill="none" xmlns="http://www.w3.org/2000/svg">
<path d="M14.1727 6.48955H9.5433V1.94836C9.5433 1.39112 9.0826 0.939209 8.51454 0.939209H7.48577C6.91771 0.939209 6.45701 1.39112 6.45701 1.94836V6.48955H1.82759C1.25952 6.48955 0.798828 6.94146 0.798828 7.4987V8.50785C0.798828 9.06509 1.25952 9.51701 1.82759 9.51701H6.45701V14.0582C6.45701 14.6154 6.91771 15.0673 7.48577 15.0673H8.51454C9.0826 15.0673 9.5433 14.6154 9.5433 14.0582V9.51701H14.1727C14.7408 9.51701 15.2015 9.06509 15.2015 8.50785V7.4987C15.2015 6.94146 14.7408 6.48955 14.1727 6.48955Z" fill="white"/>
</svg>
