<svg width="21" height="18" viewBox="0 0 21 18" fill="none" xmlns="http://www.w3.org/2000/svg">
<path d="M20.4204 4.18134L11.2677 0.164179C10.7689 -0.0547262 10.2308 -0.0547262 9.73239 0.164179L0.579307 4.18134C-0.193102 4.52024 -0.193102 5.97945 0.579307 6.31836L2.17499 7.01867C1.82487 7.63694 1.60962 8.39116 1.5883 9.21709C1.27231 9.47584 1.04984 9.94271 1.04984 10.5C1.04984 11.0054 1.23622 11.4305 1.50462 11.7024L0.666917 17.0873C0.594073 17.5556 0.843449 18 1.17912 18H3.02024C3.35624 18 3.60562 17.5556 3.53277 17.0873L2.69507 11.7024C2.96347 11.4305 3.14985 11.0054 3.14985 10.5C3.14985 9.95771 2.93755 9.50396 2.636 9.24053C2.66094 8.53647 2.91294 7.91397 3.3149 7.51929L9.73206 10.336C10.0293 10.4663 10.5996 10.629 11.2674 10.336L20.4204 6.31883C21.1932 5.97945 21.1932 4.52071 20.4204 4.18134ZM11.5758 11.7699C10.6397 12.1805 9.84198 11.9536 9.42362 11.7699L4.66513 9.68162L4.19985 15C4.19985 16.657 7.02043 18 10.4999 18C13.9793 18 16.7999 16.657 16.7999 15L16.3346 9.68115L11.5758 11.7699Z" fill="white"/>
</svg>
