<svg width="18" height="18" viewBox="0 0 18 18" fill="none" xmlns="http://www.w3.org/2000/svg">
<path d="M18 12.6562V0.84375C18 0.376172 17.5701 0 17.0357 0H3.85714C1.72768 0 0 1.51172 0 3.375V14.625C0 16.4883 1.72768 18 3.85714 18H17.0357C17.5701 18 18 17.6238 18 17.1562V16.5938C18 16.3301 17.8594 16.091 17.6424 15.9363C17.4737 15.3949 17.4737 13.8516 17.6424 13.3102C17.8594 13.159 18 12.9199 18 12.6562ZM5.14286 4.71094C5.14286 4.59492 5.25134 4.5 5.38393 4.5H13.9018C14.0344 4.5 14.1429 4.59492 14.1429 4.71094V5.41406C14.1429 5.53008 14.0344 5.625 13.9018 5.625H5.38393C5.25134 5.625 5.14286 5.53008 5.14286 5.41406V4.71094ZM5.14286 6.96094C5.14286 6.84492 5.25134 6.75 5.38393 6.75H13.9018C14.0344 6.75 14.1429 6.84492 14.1429 6.96094V7.66406C14.1429 7.78008 14.0344 7.875 13.9018 7.875H5.38393C5.25134 7.875 5.14286 7.78008 5.14286 7.66406V6.96094ZM15.3241 15.75H3.85714C3.14598 15.75 2.57143 15.2473 2.57143 14.625C2.57143 14.0063 3.15 13.5 3.85714 13.5H15.3241C15.2478 14.1012 15.2478 15.1488 15.3241 15.75Z" fill="white"/>
</svg>
