<svg width="30" height="28" viewBox="0 0 30 28" fill="none" xmlns="http://www.w3.org/2000/svg">
<path d="M28.8096 23.5076L23.1219 18.2135C22.8652 17.9745 22.5172 17.8418 22.152 17.8418H21.2222C22.7967 15.9673 23.7323 13.6097 23.7323 11.0449C23.7323 4.94366 18.4211 0 11.8661 0C5.31124 0 0 4.94366 0 11.0449C0 17.1462 5.31124 22.0898 11.8661 22.0898C14.6216 22.0898 17.1546 21.219 19.1684 19.7534V20.619C19.1684 20.9588 19.311 21.2827 19.5677 21.5217L25.2555 26.8158C25.7918 27.3149 26.6589 27.3149 27.1895 26.8158L28.8039 25.313C29.3402 24.8139 29.3402 24.0068 28.8096 23.5076ZM11.8661 17.8418C7.8328 17.8418 4.5639 14.8044 4.5639 11.0449C4.5639 7.29071 7.82709 4.24805 11.8661 4.24805C15.8995 4.24805 19.1684 7.2854 19.1684 11.0449C19.1684 14.7991 15.9052 17.8418 11.8661 17.8418Z" fill="black"/>
</svg>
