<svg width="16" height="16" viewBox="0 0 16 16" fill="none" xmlns="http://www.w3.org/2000/svg">
<path fill-rule="evenodd" clip-rule="evenodd" d="M13.7918 2.42857L15.7656 6.86564C16.0781 7.56851 16.0781 8.43149 15.7656 9.13437L13.0963 15.1365C12.8588 15.6705 12.417 16 11.9384 16H9.65391C9.40839 16 9.20936 15.7442 9.20936 15.4286C9.20936 15.3291 9.22956 15.2313 9.26797 15.145L12.1933 8.56718C12.3496 8.21575 12.3496 7.78425 12.1933 7.43282L11.8802 6.72914L13.7918 2.42857ZM12.5705 0C12.816 0 13.0151 0.255837 13.0151 0.571429C13.0151 0.670873 12.9949 0.768595 12.9565 0.854936L6.47971 15.4242C6.32141 15.7802 6.02681 16 5.70775 16H3.43335C3.18783 16 2.9888 15.7442 2.9888 15.4286C2.9888 15.3291 3.00899 15.2314 3.04737 15.1451L9.52414 0.575841C9.68244 0.219755 9.97704 0 10.2961 0H12.5705ZM6.34609 0C6.42348 0 6.49953 0.0259684 6.56672 0.075337C6.75618 0.214558 6.83571 0.50584 6.76547 0.761278L6.73203 0.85502L3.80673 7.43282C3.66997 7.74032 3.65287 8.10912 3.75544 8.43195L3.80673 8.56718L4.12099 9.27429L2.20853 13.5749L0.234439 9.13437C-0.0520974 8.49006 -0.0759756 7.71123 0.162805 7.0445L0.234439 6.86564L2.90373 0.863512C3.11962 0.378069 3.5044 0.0616035 3.93209 0.00807626L4.06155 0H6.34609Z" fill="#BBC2CC"/>
<path fill-rule="evenodd" clip-rule="evenodd" d="M8.00193 8L4.57055 16H3.43335C3.18783 16 2.9888 15.7442 2.9888 15.4286C2.9888 15.3291 3.00899 15.2314 3.04737 15.1451L6.21305 8.02286L8.00193 8ZM6.34609 0C6.42348 0 6.49953 0.0259684 6.56672 0.075337C6.75618 0.214558 6.83571 0.50584 6.76547 0.761278L6.73203 0.85502L3.80673 7.43282C3.66997 7.74032 3.65287 8.10912 3.75544 8.43195L3.80673 8.56718L4.12099 9.27429L2.20853 13.5749L0.234439 9.13437C-0.0520974 8.49006 -0.0759756 7.71123 0.162805 7.0445L0.234439 6.86564L2.90373 0.863512C3.11962 0.378069 3.5044 0.0616035 3.93209 0.00807626L4.06155 0H6.34609ZM11.4333 0L8.00193 8H6.22283L9.52414 0.575841C9.68244 0.219755 9.97704 0 10.2961 0H11.4333Z" fill="#D5D8E2"/>
<path fill-rule="evenodd" clip-rule="evenodd" d="M9.65391 16C9.57652 16 9.50047 15.974 9.43328 15.9247C9.24382 15.7854 9.16428 15.4942 9.23453 15.2387L9.26797 15.145L12.1933 8.56718C12.2755 8.38227 12.3145 8.17519 12.3102 7.96928H15.9998C16.0034 8.30571 15.9491 8.64293 15.8372 8.9555L15.7656 9.13437L13.0963 15.1365C12.8804 15.6219 12.4956 15.9384 12.0679 15.9919L11.9384 16H9.65391ZM6.34609 0C6.42348 0 6.49953 0.0259684 6.56672 0.075337C6.75618 0.214558 6.83572 0.50584 6.76547 0.761278L6.73203 0.85502L3.80673 7.43282C3.72449 7.61773 3.68552 7.82481 3.68983 8.03073H0.000160471C-0.00335405 7.69429 0.0508607 7.35708 0.162805 7.0445L0.234439 6.86564L2.90373 0.863512C3.11962 0.378069 3.5044 0.0616035 3.93209 0.00807626L4.06156 0H6.34609Z" fill="#CCD0DF"/>
<path fill-rule="evenodd" clip-rule="evenodd" d="M11.4333 0L7.87354 4.28792L9.52419 0.575841C9.68249 0.219755 9.97709 0 10.2961 0H11.4333Z" fill="white"/>
</svg>
