<svg width="64" height="64" viewBox="0 0 64 64" fill="none" xmlns="http://www.w3.org/2000/svg">
<g clip-path="url(#clip0_473_113)">
<path fill-rule="evenodd" clip-rule="evenodd" d="M0 0H121.601V4.92312H0V0ZM0 9.84625H121.601V14.7694H0V9.84625ZM0 19.6925H121.601V24.6156H0V19.6925ZM0 29.5387H121.601V34.4619H0V29.5387ZM0 39.385H121.601V44.3081H0V39.385ZM0 49.2313H121.601V54.1544H0V49.2313ZM0 59.0775H121.601V64.0006H0V59.0775Z" fill="#BD3D44"/>
<path fill-rule="evenodd" clip-rule="evenodd" d="M0 4.9231H121.601V9.84622H0V4.9231ZM0 14.7693H121.601V19.6925H0V14.7693ZM0 24.6156H121.601V29.5387H0V24.6156ZM0 34.4618H121.601V39.385H0V34.4618ZM0 44.3081H121.601V49.2312H0V44.3081ZM0 54.1543H121.601V59.0775H0V54.1543Z" fill="white"/>
<path fill-rule="evenodd" clip-rule="evenodd" d="M0 0H48.6405V34.4619H0V0Z" fill="#192F5D"/>
<path fill-rule="evenodd" clip-rule="evenodd" d="M4.03699 1.47705L4.52924 2.85543H5.90774L4.77536 3.69243L5.21849 5.02168L4.03699 4.18468L2.95386 5.02168L3.39699 3.69243L2.21536 2.85543H3.69249L4.03699 1.47705ZM12.1601 1.47705L12.6032 2.85543H14.0309L12.8494 3.69243L13.3416 5.02168L12.1601 4.18468L10.9786 5.02168L11.4709 3.69243L10.2894 2.85543H11.717L12.1601 1.47705ZM20.2832 1.47705L20.7264 2.85543H22.154L20.9725 3.69243L21.4649 5.02168L20.2832 4.18468L19.1017 5.02168L19.594 3.69243L18.4125 2.85543H19.8402L20.2832 1.47705ZM28.3572 1.47705L28.8495 2.85543H30.228L29.0956 3.69243L29.5387 5.02168L28.3572 4.18468L27.2249 5.02168L27.668 3.69243L26.4864 2.85543H27.9634L28.3572 1.47705ZM36.4804 1.47705L36.9234 2.85543H38.3511L37.1696 3.69243L37.6619 5.02168L36.4311 4.18468L35.2987 5.02168L35.7419 3.69243L34.5604 2.85543H35.988L36.4804 1.47705ZM44.6035 1.47705L45.0466 2.85543H46.4742L45.2927 3.69243L45.785 5.02168L44.6035 4.18468L43.422 5.02168L43.9142 3.69243L42.7327 2.85543H44.1604L44.6035 1.47705ZM8.12311 4.92318L8.56624 6.30168H9.99399L8.81236 7.13855L9.30474 8.4678L8.12311 7.63093L6.94161 8.4678L7.43386 7.13855L6.25236 6.30168H7.68011L8.12311 4.92318ZM16.1971 4.92318L16.6894 6.30168H18.0679L16.9355 7.13855L17.3786 8.4678L16.1971 7.63093L15.0647 8.4678L15.5079 7.13855L14.3262 6.30168H15.8032L16.1971 4.92318ZM24.3202 4.92318L24.7634 6.30168H26.191L25.0095 7.13855L25.5017 8.4678L24.3202 7.63093L23.1386 8.4678L23.631 7.13855L22.4495 6.30168H23.8771L24.3202 4.92318ZM32.4434 4.92318L32.8865 6.30168H34.3141L33.1326 7.13855L33.625 8.4678L32.4434 7.63093L31.2619 8.4678L31.7541 7.13855L30.5726 6.30168H32.0004L32.4434 4.92318ZM40.5174 4.92318L41.0096 6.30168H42.3389L41.2065 7.13855L41.6496 8.4678L40.4681 7.63093L39.3357 8.4678L39.7789 7.13855L38.5972 6.30168H40.0742L40.5174 4.92318ZM4.08611 8.36943L4.47999 9.7478H5.95699L4.77536 10.5848L5.21849 11.9141L4.03699 11.0771L2.95386 11.9141L3.39699 10.5848L2.21536 9.7478H3.69249L4.08611 8.36943ZM12.1601 8.36943L12.6032 9.7478H14.0309L12.8986 10.5848L13.3416 11.9141L12.1601 11.0771L11.0277 11.9141L11.4709 10.5848L10.2894 9.7478H11.717L12.1601 8.36943ZM20.2832 8.36943L20.7264 9.7478H22.154L20.9725 10.5848L21.4649 11.9141L20.2832 11.0771L19.1017 11.9141L19.594 10.5848L18.4125 9.7478H19.8402L20.2832 8.36943ZM28.3572 8.36943L28.8495 9.7478H30.228L29.0956 10.5848L29.5387 11.9141L28.3572 11.0771L27.2249 11.9141L27.668 10.5848L26.4864 9.7478H27.9634L28.3572 8.36943ZM36.4804 8.36943L36.9234 9.7478H38.3511L37.2189 10.5848L37.6619 11.9141L36.4804 11.0771L35.348 11.9141L35.7911 10.5848L34.6096 9.7478H36.0372L36.4804 8.36943ZM44.6035 8.36943L45.0466 9.7478H46.4742L45.2927 10.5848L45.785 11.9141L44.6035 11.0771L43.422 11.9141L43.9142 10.5848L42.7327 9.7478H44.1604L44.6035 8.36943ZM8.12311 11.8154L8.56624 13.1939H9.99399L8.81236 14.0308L9.30474 15.3601L8.12311 14.5232L6.94161 15.3601L7.43386 14.0308L6.25236 13.1939H7.68011L8.12311 11.8154ZM16.1971 11.8154L16.6894 13.1939H18.0679L16.9355 14.0308L17.3786 15.3601L16.1971 14.5232L15.0647 15.3601L15.5079 14.0308L14.3262 13.1939H15.8032L16.1971 11.8154ZM24.3202 11.8154L24.7634 13.1939H26.191L25.0587 14.0308L25.5017 15.3601L24.3202 14.5232L23.1879 15.3601L23.631 14.0308L22.4495 13.1939H23.8771L24.3202 11.8154ZM32.4434 11.8154L32.8865 13.1939H34.3141L33.1326 14.0308L33.625 15.3602L32.4434 14.5233L31.2619 15.3602L31.7541 14.0309L30.5726 13.1941H32.0004L32.4434 11.8154ZM40.5174 11.8154L41.0096 13.1939H42.3389L41.2065 14.0308L41.6496 15.3601L40.4681 14.5232L39.3357 15.3601L39.7789 14.0308L38.5972 13.1939H40.0742L40.5174 11.8154ZM4.08611 15.2617L4.47999 16.64H5.95699L4.77536 17.477L5.21849 18.8063L4.03699 17.9693L2.95386 18.8063L3.39699 17.477L2.21536 16.64H3.69249L4.08611 15.2617ZM12.1601 15.2617L12.6032 16.64H14.0309L12.8986 17.477L13.3416 18.8063L12.1601 17.9693L11.0277 18.8063L11.4709 17.477L10.2894 16.64H11.717L12.1601 15.2617ZM20.2832 15.2617L20.7264 16.64H22.154L20.9725 17.477L21.4649 18.8063L20.2832 17.9693L19.1017 18.8063L19.594 17.477L18.4125 16.64H19.8402L20.2832 15.2617ZM28.3572 15.2617L28.8495 16.64H30.228L29.0956 17.477L29.5387 18.8063L28.3572 17.9693L27.2249 18.8063L27.668 17.477L26.4864 16.64H27.9634L28.3572 15.2617ZM36.4804 15.2617L36.9234 16.64H38.3511L37.2189 17.477L37.6619 18.8063L36.4804 17.9693L35.348 18.8063L35.7911 17.477L34.6096 16.64H36.0372L36.4804 15.2617ZM44.6035 15.2617L45.0466 16.64H46.4742L45.2927 17.477L45.785 18.8063L44.6035 17.9693L43.422 18.8063L43.9142 17.477L42.7327 16.64H44.1604L44.6035 15.2617ZM8.12311 18.7078L8.56624 20.0863H9.99399L8.81236 20.9232L9.30474 22.2524L8.12311 21.4156L6.94161 22.2524L7.43386 20.9232L6.25236 20.0863H7.68011L8.12311 18.7078ZM16.1971 18.7078L16.6894 20.0863H18.0679L16.9355 20.9232L17.3786 22.2524L16.1971 21.4156L15.0647 22.2524L15.5079 20.9232L14.3262 20.0863H15.8032L16.1971 18.7078ZM24.3202 18.7078L24.7634 20.0863H26.191L25.0587 20.9232L25.5017 22.2524L24.3202 21.4156L23.1879 22.2524L23.631 20.9232L22.4495 20.0863H23.8771L24.3202 18.7078ZM32.4434 18.7078L32.8865 20.0863H34.3141L33.1326 20.9232L33.625 22.2526L32.4434 21.4157L31.2619 22.2526L31.7541 20.9233L30.5726 20.0864H32.0004L32.4434 18.7078ZM40.5174 18.7078L41.0096 20.0863H42.3389L41.2065 20.9232L41.6496 22.2524L40.4681 21.4156L39.3357 22.2524L39.7789 20.9232L38.5972 20.0863H40.0742L40.5174 18.7078ZM4.08611 22.1541L4.47999 23.5324H5.95699L4.77536 24.3694L5.21849 25.6987L4.03699 24.8617L2.95386 25.6987L3.39699 24.3694L2.21536 23.5324H3.69249L4.08611 22.1541ZM12.1601 22.1541L12.6032 23.5324H14.0309L12.8986 24.3694L13.3416 25.6987L12.1601 24.8617L11.0277 25.6987L11.4709 24.3694L10.2894 23.5324H11.717L12.1601 22.1541ZM20.2832 22.1541L20.7264 23.5324H22.154L20.9725 24.3694L21.4649 25.6987L20.2832 24.8617L19.1017 25.6987L19.594 24.3694L18.4125 23.5324H19.8402L20.2832 22.1541ZM28.3572 22.1541L28.8495 23.5324H30.228L29.0956 24.3694L29.5387 25.6987L28.3572 24.8617L27.2249 25.6987L27.668 24.3694L26.4864 23.5324H27.9634L28.3572 22.1541ZM36.4804 22.1541L36.9234 23.5324H38.3511L37.2189 24.3694L37.6619 25.6987L36.4804 24.8617L35.348 25.6987L35.7911 24.3694L34.6096 23.5324H36.0372L36.4804 22.1541ZM44.6035 22.1541L45.0466 23.5324H46.4742L45.2927 24.3694L45.785 25.6987L44.6035 24.8617L43.422 25.6987L43.9142 24.3694L42.7327 23.5324H44.1604L44.6035 22.1541ZM8.12311 25.6003L8.56624 26.9788H9.99399L8.81236 27.8157L9.30474 29.1449L8.12311 28.3081L6.94161 29.1449L7.43386 27.8157L6.25236 26.9788H7.68011L8.12311 25.6003ZM16.1971 25.6003L16.6894 26.9788H18.0679L16.9355 27.8157L17.3786 29.1449L16.1971 28.3081L15.0647 29.1449L15.5079 27.8157L14.3262 26.9788H15.8032L16.1971 25.6003ZM24.3202 25.6003L24.7634 26.9788H26.191L25.0587 27.8157L25.5017 29.1449L24.3202 28.3081L23.1879 29.1449L23.631 27.8157L22.4495 26.9788H23.8771L24.3202 25.6003ZM32.4434 25.6003L32.8865 26.9788H34.3141L33.1326 27.8157L33.625 29.1451L32.4434 28.3082L31.2619 29.1451L31.7541 27.8158L30.5726 26.9789H32.0004L32.4434 25.6003ZM40.5174 25.6003L41.0096 26.9788H42.3389L41.2065 27.8157L41.6496 29.1449L40.4681 28.3081L39.3357 29.1449L39.7789 27.8157L38.5972 26.9788H40.0742L40.5174 25.6003ZM4.08611 29.0466L4.47999 30.4249H5.95699L4.77536 31.2619L5.21849 32.5912L4.03699 31.7542L2.95386 32.5912L3.39699 31.2619L2.21536 30.4249H3.69249L4.08611 29.0466ZM12.1601 29.0466L12.6032 30.4249H14.0309L12.8986 31.2619L13.3416 32.5912L12.1601 31.7542L11.0277 32.5912L11.4709 31.2619L10.2894 30.4249H11.717L12.1601 29.0466ZM20.2832 29.0466L20.7264 30.4249H22.154L20.9725 31.2619L21.4649 32.5912L20.2832 31.7542L19.1017 32.5912L19.594 31.2619L18.4125 30.4249H19.8402L20.2832 29.0466ZM28.3572 29.0466L28.8495 30.4249H30.228L29.0956 31.2619L29.5387 32.5912L28.3572 31.7542L27.2249 32.5912L27.668 31.2619L26.4864 30.4249H27.9634L28.3572 29.0466ZM36.4804 29.0466L36.9234 30.4249H38.3511L37.2189 31.2619L37.6619 32.5912L36.4804 31.7542L35.348 32.5912L35.7911 31.2619L34.6096 30.4249H36.0372L36.4804 29.0466ZM44.6035 29.0466L45.0466 30.4249H46.4742L45.2927 31.2619L45.785 32.5912L44.6035 31.7542L43.422 32.5912L43.9142 31.2619L42.7327 30.4249H44.1604L44.6035 29.0466Z" fill="white"/>
</g>
<defs>
<clipPath id="clip0_473_113">
<rect width="64" height="64" fill="white"/>
</clipPath>
</defs>
</svg>
